<?xml version="1.0" encoding="UTF-8" standalone="no"?>
<!-- Created with Inkscape (http://www.inkscape.org/) -->

<svg
   xmlns:dc="http://purl.org/dc/elements/1.1/"
   xmlns:cc="http://creativecommons.org/ns#"
   xmlns:rdf="http://www.w3.org/1999/02/22-rdf-syntax-ns#"
   xmlns:svg="http://www.w3.org/2000/svg"
   xmlns="http://www.w3.org/2000/svg"
   xmlns:sodipodi="http://sodipodi.sourceforge.net/DTD/sodipodi-0.dtd"
   xmlns:inkscape="http://www.inkscape.org/namespaces/inkscape"
   version="1.1"
   id="svg2"
   xml:space="preserve"
   width="666.66669"
   height="242.228"
   viewBox="0 0 666.66669 242.228"
   sodipodi:docname="logo Solucion en linea.svg"
   inkscape:version="0.92.5 (2060ec1f9f, 2020-04-08)"><metadata
     id="metadata8"><rdf:RDF><cc:Work
         rdf:about=""><dc:format>image/svg+xml</dc:format><dc:type
           rdf:resource="http://purl.org/dc/dcmitype/StillImage" /><dc:title /></cc:Work></rdf:RDF></metadata><defs
     id="defs6"><clipPath
       clipPathUnits="userSpaceOnUse"
       id="clipPath18"><path
         d="M 0,181.671 H 500 V 0 H 0 Z"
         id="path16"
         inkscape:connector-curvature="0" /></clipPath><clipPath
       clipPathUnits="userSpaceOnUse"
       id="clipPath42"><path
         d="M 0,181.671 H 500 V 0 H 0 Z"
         id="path40"
         inkscape:connector-curvature="0" /></clipPath></defs><sodipodi:namedview
     pagecolor="#ffffff"
     bordercolor="#666666"
     borderopacity="1"
     objecttolerance="10"
     gridtolerance="10"
     guidetolerance="10"
     inkscape:pageopacity="0"
     inkscape:pageshadow="2"
     inkscape:window-width="640"
     inkscape:window-height="480"
     id="namedview4"
     showgrid="false"
     inkscape:zoom="0.66449998"
     inkscape:cx="293.90775"
     inkscape:cy="112.08466"
     inkscape:window-x="510"
     inkscape:window-y="172"
     inkscape:window-maximized="0"
     inkscape:current-layer="g10" /><g
     id="g10"
     inkscape:groupmode="layer"
     inkscape:label="logo Solucion en linea FINAL"
     transform="matrix(1.3333333,0,0,-1.3333333,0,242.228)"><g
   id="g12"><g
   transform="translate(90.8351,181.6706)"
   id="g20"><path
     inkscape:connector-curvature="0"
     id="path22"
     style="fill:#13223f;fill-opacity:1;fill-rule:nonzero;stroke:none"
     d="m 0,0 c -24.732,0 -47.144,-9.897 -63.524,-25.933 -16.845,-16.488 -27.311,-39.468 -27.311,-64.902 0,-50.167 40.668,-90.836 90.835,-90.836 25.435,0 48.414,10.466 64.903,27.311 16.035,16.381 25.932,38.792 25.932,63.525 C 90.835,-40.668 50.167,0 0,0" /></g><g
   transform="translate(67.4532,115.8825)"
   id="g24"><path
     inkscape:connector-curvature="0"
     id="path26"
     style="fill:#2f548e;fill-opacity:1;fill-rule:nonzero;stroke:none"
     d="m 0,0 58.69,58.691 c -10.842,4.569 -22.756,7.097 -35.261,7.097 -50.193,0 -90.882,-40.689 -90.882,-90.882 0,-37.429 22.633,-69.563 54.955,-83.491 l 60.351,60.35 z" /></g><text
   id="text30"
   style="font-variant:normal;font-weight:bold;font-stretch:normal;font-size:67.60700226px;font-family:Montserrat;-inkscape-font-specification:'Montserrat Bold';writing-mode:lr-tb;fill:#2f548e;fill-opacity:1;fill-rule:nonzero;stroke:none;font-style:normal;"
   transform="scale(1,-1)"
   x="205.50929"
   y="-91.254402"><tspan
     id="tspan28"
     sodipodi:role="line"
     y="-91.254402"
     x="205.50929 247.22282 290.22086 309.35364 354.1095 392.8483 411.98108 454.97913"
     style="-inkscape-font-specification:'Montserrat Ultra-Bold';font-family:Montserrat;font-weight:800;font-style:normal;font-stretch:normal;font-variant:normal">Solución</tspan></text>


</g><text
   transform="matrix(1,0,0,-1,203.939,37.0337)"
   style="font-variant:normal;font-weight:600;font-stretch:normal;font-size:62.79880142px;font-family:'Montserrat SemiBold';-inkscape-font-specification:Montserrat-SemiBold;writing-mode:lr-tb;fill:#13223f;fill-opacity:1;fill-rule:nonzero;stroke:none"
   id="text34"><tspan
     x="0 36.548901 77.054131 87.415932 103.05283 118.68974 159.50896 195.11588"
     y="0"
     sodipodi:role="line"
     id="tspan32"
     style="-inkscape-font-specification:'Montserrat Semi-Bold';font-family:Montserrat;font-weight:600;font-style:normal;font-stretch:normal;font-variant:normal">en línea</tspan></text>


<g
   id="g36"><g
     id="g38"
     clip-path="url(#clipPath42)"><g
       id="g44"
       transform="translate(67.4625,115.8689)"><path
         d="m 0,0 11.987,11.997 5.941,5.941 v -5.941 h 48.001 v 24.11 H -0.147 v -0.051 c 0.441,0 0.882,-0.022 1.323,-0.053 H -0.147 -1.469 C -10.833,35.331 -18.232,27.521 -18.232,17.97 v -36.045 c 0,-9.993 8.103,-18.086 18.085,-18.086 v -0.052 h 29.915 v 5.983 l 6.015,-5.983 12.06,-12.009 -0.042,-0.042 -12.039,-12.049 -5.994,-5.994 v 5.994 h -48 v -24.111 h 66.075 c -0.651,0 -1.301,0.031 -1.931,0.105 h 1.931 1.931 c 9.08,0.965 16.155,8.638 16.155,17.97 v 36.161 c 0,9.993 -8.104,18.085 -18.086,18.085 H 17.928 v -5.972 -0.073 l -6.067,6.045 -12.008,11.956 0.042,0.042"
         style="fill:#ffffff;fill-opacity:1;fill-rule:nonzero;stroke:none"
         id="path46"
         inkscape:connector-curvature="0" /></g></g></g></g></svg>